HIERARCHY
ROOT hip
{
  OFFSET 0 0 0
  CHANNELS 6 Xposition Yposition Zposition Zrotation Yrotation Xrotation
  JOINT abdomen
  {
    OFFSET 0 20.6881 -0.73152
    CHANNELS 3 Zrotation Xrotation Yrotation
    JOINT chest
    {
      OFFSET 0 11.7043 -0.48768
      CHANNELS 3 Zrotation Xrotation Yrotation
      JOINT neck
      {
        OFFSET 0 22.1894 -2.19456
        CHANNELS 3 Zrotation Xrotation Yrotation
        JOINT head
        {
          OFFSET -0.24384 7.07133 1.2192
          CHANNELS 3 Zrotation Xrotation Yrotation
          JOINT leftEye
          {
            OFFSET 4.14528 8.04674 8.04672
            CHANNELS 3 Zrotation Xrotation Yrotation
            End Site
            {
              OFFSET 1 0 0
            }
          }
          JOINT rightEye
          {
            OFFSET -3.6576 8.04674 8.04672
            CHANNELS 3 Zrotation Xrotation Yrotation
            End Site
            {
              OFFSET 1 0 0
            }
          }
        }
      }
      JOINT rCollar
      {
        OFFSET -2.68224 19.2634 -4.8768
        CHANNELS 3 Zrotation Xrotation Yrotation
        JOINT rShldr
        {
          OFFSET -8.77824 -1.95073 1.46304
          CHANNELS 3 Zrotation Xrotation Yrotation
          JOINT rForeArm
          {
            OFFSET -28.1742 -1.7115 0.48768
            CHANNELS 3 Zrotation Xrotation Yrotation
            JOINT rHand
            {
              OFFSET -22.5879 0.773209 7.07136
              CHANNELS 3 Zrotation Xrotation Yrotation
              JOINT rThumb1
              {
                OFFSET -1.2192 -0.487915 3.41376
                CHANNELS 3 Zrotation Xrotation Yrotation
                JOINT rThumb2
                {
                  OFFSET -3.37035 -0.52449 3.41376
                  CHANNELS 3 Zrotation Xrotation Yrotation
                  End Site
                  {
                    OFFSET -1.78271 -1.18214 1.43049
                  }
                }
              }
              JOINT rIndex1
              {
                OFFSET -7.75947 0.938293 5.60832
                CHANNELS 3 Zrotation Xrotation Yrotation
                JOINT rIndex2
                {
                  OFFSET -2.54057 -0.884171 1.56538
                  CHANNELS 3 Zrotation Xrotation Yrotation
                  End Site
                  {
                    OFFSET -1.62519 -0.234802 1.16502
                  }
                }
              }
              JOINT rMid1
              {
                OFFSET -8.24714 1.18213 3.41376
                CHANNELS 3 Zrotation Xrotation Yrotation
                JOINT rMid2
                {
                  OFFSET -3.10165 -0.590103 1.0647
                  CHANNELS 3 Zrotation Xrotation Yrotation
                  End Site
                  {
                    OFFSET -2.48547 -0.328903 0.83742
                  }
                }
              }
              JOINT rRing1
              {
                OFFSET -8.82822 0.546677 1.51678
                CHANNELS 3 Zrotation Xrotation Yrotation
                JOINT rRing2
                {
                  OFFSET -2.60934 -0.819778 -0.0198488
                  CHANNELS 3 Zrotation Xrotation Yrotation
                  End Site
                  {
                    OFFSET -2.33842 -0.294052 0.168128
                  }
                }
              }
              JOINT rPinky1
              {
                OFFSET -8.27202 -0.0477905 -0.4584
                CHANNELS 3 Zrotation Xrotation Yrotation
                JOINT rPinky2
                {
                  OFFSET -1.82734 -0.647385 -0.700984
                  CHANNELS 3 Zrotation Xrotation Yrotation
                  End Site
                  {
                    OFFSET -1.69225 -0.51767 -0.607171
                  }
                }
              }
            }
          }
        }
      }
      JOINT lCollar
      {
        OFFSET 2.68224 19.2634 -4.8768
        CHANNELS 3 Zrotation Xrotation Yrotation
        JOINT lShldr
        {
          OFFSET 8.77824 -1.95073 1.46304
          CHANNELS 3 Zrotation Xrotation Yrotation
          JOINT lForeArm
          {
            OFFSET 28.1742 -1.7115 0.48768
            CHANNELS 3 Zrotation Xrotation Yrotation
            JOINT lHand
            {
              OFFSET 22.5879 0.773209 7.07136
              CHANNELS 3 Zrotation Xrotation Yrotation
              JOINT lThumb1
              {
                OFFSET 1.2192 -0.487915 3.41376
                CHANNELS 3 Zrotation Xrotation Yrotation
                JOINT lThumb2
                {
                  OFFSET 3.37035 -0.52449 3.41376
                  CHANNELS 3 Zrotation Xrotation Yrotation
                  End Site
                  {
                    OFFSET 1.78271 -1.18214 1.43049
                  }
                }
              }
              JOINT lIndex1
              {
                OFFSET 7.75947 0.938293 5.60832
                CHANNELS 3 Zrotation Xrotation Yrotation
                JOINT lIndex2
                {
                  OFFSET 2.54057 -0.884171 1.56538
                  CHANNELS 3 Zrotation Xrotation Yrotation
                  End Site
                  {
                    OFFSET 1.62519 -0.234802 1.16502
                  }
                }
              }
              JOINT lMid1
              {
                OFFSET 8.24714 1.18213 3.41376
                CHANNELS 3 Zrotation Xrotation Yrotation
                JOINT lMid2
                {
                  OFFSET 3.10165 -0.590103 1.0647
                  CHANNELS 3 Zrotation Xrotation Yrotation
                  End Site
                  {
                    OFFSET 2.48547 -0.328903 0.83742
                  }
                }
              }
              JOINT lRing1
              {
                OFFSET 8.82822 0.546677 1.51678
                CHANNELS 3 Zrotation Xrotation Yrotation
                JOINT lRing2
                {
                  OFFSET 2.60934 -0.819778 -0.0198488
                  CHANNELS 3 Zrotation Xrotation Yrotation
                  End Site
                  {
                    OFFSET 2.33842 -0.294052 0.168128
                  }
                }
              }
              JOINT lPinky1
              {
                OFFSET 8.27202 -0.0477905 -0.4584
                CHANNELS 3 Zrotation Xrotation Yrotation
                JOINT lPinky2
                {
                  OFFSET 1.82734 -0.647385 -0.700984
                  CHANNELS 3 Zrotation Xrotation Yrotation
                  End Site
                  {
                    OFFSET 1.69225 -0.51767 -0.607171
                  }
                }
              }
            }
          }
        }
      }
    }
  }
  JOINT rButtock
  {
    OFFSET -8.77824 4.35084 1.2192
    CHANNELS 3 Zrotation Xrotation Yrotation
    JOINT rThigh
    {
      OFFSET 0 -1.70687 -2.19456
      CHANNELS 3 Zrotation Xrotation Yrotation
      JOINT rShin
      {
        OFFSET 0 -36.8199 0.73152
        CHANNELS 3 Zrotation Xrotation Yrotation
        JOINT rFoot
        {
          OFFSET 0.73152 -45.1104 -5.12064
          CHANNELS 3 Zrotation Xrotation Yrotation
          End Site
          {
            OFFSET -1.1221 -3.69964 12.103
          }
        }
      }
    }
  }
  JOINT lButtock
  {
    OFFSET 8.77824 4.35084 1.2192
    CHANNELS 3 Zrotation Xrotation Yrotation
    JOINT lThigh
    {
      OFFSET 0 -1.70687 -2.19456
      CHANNELS 3 Zrotation Xrotation Yrotation
      JOINT lShin
      {
        OFFSET 0 -36.8199 0.73152
        CHANNELS 3 Zrotation Xrotation Yrotation
        JOINT lFoot
        {
          OFFSET -0.73152 -45.1104 -5.12064
          CHANNELS 3 Zrotation Xrotation Yrotation
          End Site
          {
            OFFSET 1.1221 -3.69964 12.103
          }
        }
      }
    }
  }
}
MOTION
Frames:	4
Frame Time:	0.03333
0.8136999793350697 70.305997133255 2.4241499602794647 -11.72979975791201 -34.21730113785043 1.1543000487414508 10.00960039374502 13.342499628505816 12.844299654029562 -3.7698400963448515 -5.357929941585455 3.6383201081212015 -3.3519200309388117 13.389900287572058 2.1371000238394053 7.473879857773093 -21.976599814926878 5.808000134301568 -0.0 0.0 0.0 -0.0 0.0 0.0 5.939339838658526e-14 2.2009799590768687e-14 -9.886000243297188e-13 78.96510107008137 39.45489851418589 -30.926099354198914 -28.435600646947996 -35.63190161685177 76.38240163922445 -0.13221700102432177 10.278300035693322 1.4605500430340728 -1.460640019154315e-09 -6.79677975534723e-10 3.884360146027154e-09 -2.489779949429835e-09 -1.2919200416510482e-09 6.719469615135561e-09 -1.4606299805286018e-09 -6.796710180713574e-10 3.8843498092244395e-09 7.730910121524428 5.474879855648998 0.41731399283890674 -1.460640019154315e-09 -6.796689805285145e-10 3.884360146027154e-09 2.90554006136521 0.9651829962377875 0.10290200252939893 -1.4606299805286018e-09 -6.796679866051766e-10 3.884360146027154e-09 10.278599710243157 0.7318009818271524 0.025912300303053633 -1.460640019154315e-09 -6.796739998413712e-10 3.884370085260534e-09 2.221669932038622 -0.7334870246959406 -0.20891999872313852 5.932879700947401e-14 2.2008399762825365e-14 -9.888159891175074e-13 -79.42249834822962 26.7088997964648 17.473000180010374 26.492000309181876 -24.768299619291607 -58.90570291177852 0.43437999421255047 -18.336800543963548 2.671029998524465 9.871769839086297e-10 4.001189870864013e-09 -5.329509869959404e-10 1.7230299162273614e-09 6.967310362995254e-09 -9.213030250158319e-10 9.871749960619537e-10 4.001189870864013e-09 -5.329460173792507e-10 -7.730910121524428 5.474879855648998 -0.41731399283890674 9.871769839086297e-10 4.001189870864013e-09 -5.329530245387833e-10 -2.90554006136521 0.9651829962377875 -0.10290200252939893 9.8717201429194e-10 4.001189870864013e-09 -5.329519809192784e-10 -10.278599710243157 0.7318009818271524 -0.025912300303053633 9.871809596019816e-10 4.001189870864013e-09 -5.32958988078811e-10 -2.221669932038622 -0.7334870246959406 0.20891999872313852 -2.0321699793705798e-16 0.0 -3.882510030490358e-19 -7.495769760289337 8.915280291530271 0.3787510115892792 -0.24302698857063354 40.30199906561838 1.2909699995992903 -16.423999236712305 -13.295799917603146 -34.26130121648365 2.0321699793705798e-16 0.0 3.882510030490358e-19 47.11299881915798 -45.46689932352282 20.110899492192047 0.6286560006541155 45.41670084821781 0.10175699868828299 1.929170069040588 20.090200603912322 -2.345120051757902
2.019099984318018 69.66879963874817 4.5286498963832855 -12.308199813622554 -33.69719930802688 3.2346000059996185 9.19069998584822 11.875000188156372 12.921999886027628 -3.182070088310108 -5.588419797769413 3.6308201335257047 -3.321929950953755 13.455699768715023 2.056029947259585 7.26171966800051 -22.88600022932635 5.665959947208806 -0.0 0.0 0.0 -0.0 0.0 0.0 6.121549815429884e-14 1.0215699853361318e-13 -8.38844993210164e-13 79.96230185871407 38.694599421820506 -31.900801499705583 -28.428599703048732 -36.08340102665171 77.15760078926422 -0.1482379967951668 10.963299707553901 1.5597699599510266 -1.8362099545672405e-09 -5.376069836004765e-11 4.394449952022905e-09 -3.136760033777105e-09 -2.232100105966868e-10 7.605200024493566e-09 -1.8362099545672405e-09 -5.375180274617293e-11 4.394440012789525e-09 7.730910121524428 5.474879855648998 0.41731399283890674 -1.8362099545672405e-09 -5.374829916640663e-11 4.394449952022905e-09 2.90554006136521 0.9651829962377875 0.10290200252939893 -1.836200015333861e-09 -5.375129957248309e-11 4.394449952022905e-09 10.278599710243157 0.7318009818271524 0.025912300303053633 -1.8362099545672405e-09 -5.3755902679942e-11 4.3944598912562846e-09 2.221669932038622 -0.7334870246959406 -0.20891999872313852 6.113779936210793e-14 1.0215600363964697e-13 -8.391029862015987e-13 -79.83640098174322 28.196699412801166 16.738100853620974 26.263499745593684 -24.1304999696904 -57.886297178154116 0.5335069832041951 -20.424500797744013 2.9972699288053044 1.1025199982165718e-09 4.025420131566073e-09 -9.076059662801092e-10 1.9282500386474373e-09 7.029379682742685e-09 -1.5662099840647902e-09 1.1025199982165718e-09 4.025410192332693e-09 -9.076009966634194e-10 -7.730910121524428 5.474879855648998 -0.41731399283890674 1.1025199982165718e-09 4.025410192332693e-09 -9.076059662801092e-10 -2.90554006136521 0.9651829962377875 -0.10290200252939893 1.1025199982165718e-09 4.025410192332693e-09 -9.076090474424568e-10 -10.278599710243157 0.7318009818271524 -0.025912300303053633 1.102530036842285e-09 4.025420131566073e-09 -9.076160049058226e-10 -2.221669932038622 -0.7334870246959406 0.20891999872313852 -2.0321699793705798e-16 0.0 -3.882510030490358e-19 -8.430020110436606 7.704019666762087 -0.4568519835925536 -0.2891709995512992 41.159700070642735 1.1748299965609224 -15.585499600992154 -11.428399731538626 -34.62550056340707 2.0321699793705798e-16 0.0 3.882510030490358e-19 47.05149979587119 -47.57560070145378 21.981099202042625 0.7529370022137569 49.22529970678154 -0.11011500245804975 1.5605200000992585 12.524900371645902 -2.1139000056629875
3.1038000248372555 69.19000148773193 6.278169900178909 -10.686299678216741 -32.38059838323689 3.6903998736557257 6.903270059697772 11.381500237602735 12.665699598743837 -2.185380069761287 -6.435499858634394 3.5049299287254376 -3.2783398971141455 13.683199709589807 1.900690101192339 6.79740981152539 -24.43739915211929 5.359769823793127 -0.0 0.0 0.0 -0.0 0.0 0.0 5.516710095094838e-14 8.537219702740456e-14 2.2908700242027046e-13 80.82910067571288 37.68470131152076 -32.16630119802773 -28.42449988199943 -36.348801687230896 77.59680244346355 -0.19863099908938867 12.640600361091334 1.8059099139575991 -3.340689894616012e-10 8.490060353361522e-10 2.5779300163499343e-10 -5.790189858370953e-10 1.466139993337236e-09 4.5049500748666496e-10 -3.340639949968279e-10 8.49011004952842e-10 2.577869883987988e-10 7.730910121524428 5.474879855648998 0.41731399283890674 -3.340700082330226e-10 8.49011004952842e-10 2.577979960997667e-10 2.90554006136521 0.9651829962377875 0.10290200252939893 -3.340609883787306e-10 8.490100110295041e-10 2.577970021764287e-10 10.278599710243157 0.7318009818271524 0.025912300303053633 -3.340700082330226e-10 8.490090171061661e-10 2.5780500325929926e-10 2.221669932038622 -0.7334870246959406 -0.20891999872313852 5.51227978373186e-14 8.537120213343834e-14 2.2883900689991096e-13 -79.57429930253315 30.099199087236737 14.71439947236353 26.023799379313964 -23.495599735391867 -56.864900444386656 0.7517419859132691 -23.92440071903256 3.5724299135283233 -2.396690083520088e-10 -9.816169767560962e-10 -5.488030206168553e-10 -4.027140066206241e-10 -1.672540002151801e-09 -9.52985027159559e-10 -2.3967199012202267e-10 -9.816169767560962e-10 -5.48790994144466e-10 -7.730910121524428 5.474879855648998 -0.41731399283890674 -2.396669956572494e-10 -9.816159828327582e-10 -5.487929819911419e-10 -2.90554006136521 0.9651829962377875 -0.10290200252939893 -2.396690083520088e-10 -9.816159828327582e-10 -5.488040145401933e-10 -10.278599710243157 0.7318009818271524 -0.025912300303053633 -2.3965899457437887e-10 -9.816070375227166e-10 -5.488149973930777e-10 -2.221669932038622 -0.7334870246959406 0.20891999872313852 -2.0321699793705798e-16 0.0 -3.882510030490358e-19 -10.166799758813802 5.3640899184431605 -1.1893299545603306 -0.3556429875232451 44.037101673618196 1.218529973757487 -14.707400236011559 -9.710320287335279 -34.760499252352375 2.0321699793705798e-16 0.0 3.882510030490358e-19 45.704900680246496 -51.61410031238556 22.547499469155103 0.9048800031076853 52.84800130670504 -0.23505199566270318 1.3742700262214138 11.280100102958372 -1.5714099896789036
3.8794000167399645 68.57450008392334 8.00376981496811 -8.930800188871833 -31.010500001772762 2.9900999377240836 5.086669832472045 12.246099733688798 12.348299854239698 -1.4459099594349736 -7.160769898954545 3.3819199293208007 -3.2641499656700326 13.86579969440822 1.7125600110237424 6.512439805200472 -25.76160036990822 5.008389888168175 -0.0 0.0 0.0 -0.0 0.0 0.0 -5.2418299918689957e-14 2.8096700403897073e-15 5.486810134211106e-13 81.21239723155566 37.06839968233217 -31.375300405343143 -28.422899910186356 -36.4036002949419 77.6896998463649 -0.2426070119779571 13.872799784533838 1.9892400886869692 1.796819952697237e-10 4.1266799976176626e-10 -7.150139877419496e-10 3.007959893827223e-10 7.354000014536245e-10 -1.2321900198718337e-09 1.7968799608187662e-10 4.1266998760844217e-10 -7.150209949014822e-10 7.730910121524428 5.474879855648998 0.41731399283890674 1.7968300161710338e-10 4.126670058384283e-10 -7.150110059719357e-10 2.90554006136521 0.9651829962377875 0.10290200252939893 1.7968799608187662e-10 4.126670058384283e-10 -7.150100120485977e-10 10.278599710243157 0.7318009818271524 0.025912300303053633 1.7967999499900606e-10 4.126670058384283e-10 -7.150030048890651e-10 2.221669932038622 -0.7334870246959406 -0.20891999872313852 -5.252360095201676e-14 2.811729971379973e-15 5.484209821103305e-13 -78.5560000595543 31.849199420526137 11.6817997497461 25.746700312233838 -22.802099893109204 -55.726700645622806 0.7947459775055801 -24.452299209793672 3.6642300038508218 8.032890280977554e-11 -6.002710049531324e-10 -8.621760041017144e-11 1.3800300037644609e-10 -1.0313099630992822e-09 -1.4278799580620726e-10 8.032620058070046e-11 -6.002649917169378e-10 -8.620630074422303e-11 -7.730910121524428 5.474879855648998 -0.41731399283890674 8.033189700383112e-11 -6.002639977935998e-10 -8.620620135188924e-11 -2.90554006136521 0.9651829962377875 -0.10290200252939893 8.032839963608569e-11 -6.002669795636137e-10 -8.621909750719924e-11 -10.278599710243157 0.7318009818271524 -0.025912300303053633 8.033830159734009e-11 -6.002589784807432e-10 -8.623099973917128e-11 -2.221669932038622 -0.7334870246959406 0.20891999872313852 -2.0321699793705798e-16 0.0 -3.882510030490358e-19 -11.357800334956435 3.5934999799007548 -1.7211200523227668 -0.4408620038174513 47.207900882580724 1.285899971522731 -13.919600240726764 -9.021960162403055 -33.65779936179966 2.0321699793705798e-16 0.0 3.882510030490358e-19 44.52989982223462 -54.29040065562833 23.26750044541741 1.0611800243618472 56.03519979986477 -0.38824598839180186 1.2229700236048187 9.83639960299819 -1.5521200413589065
